<svg width="343" height="70" viewBox="0 0 343 70" fill="none" xmlns="http://www.w3.org/2000/svg">
<g filter="url(#filter0_d)">
<path fill-rule="evenodd" clip-rule="evenodd" d="M285.336 4.7667C285.336 4.7667 243.126 -2.81236 156.097 5.93669C118.174 9.74912 72.5325 5.7499 41.306 4.66699C5.01372 1.2342 1.87667 9.89348 25.893 23.4061C35.6149 28.876 37.0316 31.917 31.5379 33.6431C15.9458 38.5437 -3.30623 48.9429 7.83948 52.1721C18.9852 55.4014 91.9815 62.9002 129.326 58.6118C210.187 54.4439 245.807 50.0639 303.979 55.6173C333.896 58.4732 347.782 54.0518 330.017 43.3359C309.129 30.7366 298.986 32.389 315.547 26.0636C339.867 16.7719 354.869 9.08637 285.336 4.7667Z" fill="#D2311A"/>
</g>
<defs>
<filter id="filter0_d" x="0.451904" y="0.0467529" width="341.784" height="69.5783" filterUnits="userSpaceOnUse" color-interpolation-filters="sRGB">
<feFlood flood-opacity="0" result="BackgroundImageFix"/>
<feColorMatrix in="SourceAlpha" type="matrix" values="0 0 0 0 0 0 0 0 0 0 0 0 0 0 0 0 0 0 127 0"/>
<feOffset dy="4"/>
<feGaussianBlur stdDeviation="2"/>
<feColorMatrix type="matrix" values="0 0 0 0 0.2 0 0 0 0 0.517647 0 0 0 0 0.721569 0 0 0 1 0"/>
<feBlend mode="normal" in2="BackgroundImageFix" result="effect1_dropShadow"/>
<feBlend mode="normal" in="SourceGraphic" in2="effect1_dropShadow" result="shape"/>
</filter>
</defs>
</svg>
